PathFileType	4	(X/Y/Z)	C:/Users/beibeiliu/ov580/test_trc/User3\sequence.24_training_dense_right.trc
DataRate	CameraRate	NumFrames	NumMarkers	Units	OrigDataRate	OrigDataStartFrame	OrigNumFrames
120	120	16	19	mm	120	26	100
Frame#	Time	ThumbCMC			ThumbMCP			ThumbIP			ThumbTip			IndexMCP			IndexPIP			IndexTip			MiddleMCP			MiddlePIP			MiddleTip			RingMCP			RingPIP			RingTip			PinkyMCP			PinkyPIP			PinkyTip			BackHand1			BackHand2			BackHand3	
		X0	Y0	Z0	X1	Y1	Z1	X2	Y2	Z2	X3	Y3	Z3	X4	Y4	Z4	X5	Y5	Z5	X6	Y6	Z6	X7	Y7	Z7	X8	Y8	Z8	X9	Y9	Z9	X10	Y10	Z10	X11	Y11	Z11	X12	Y12	Z12	X13	Y13	Z13	X14	Y14	Z14	X15	Y15	Z15	X16	Y16	Z16	X17	Y17	Z17	X18	Y18	Z18	
25	0.208333	79.8141	-12.8449	9.25135	68.4283	-8.39071	-13.7239	57.693	-1.41057	-35.5254	47.9627	5.18381	-56.3839	82.8164	-22.4001	-62.8852	65.3721	-42.7868	-76.2232	49.4583	-67.1394	-77.7996	98.2617	-40.2529	-70.352	81.0219	-59.1916	-80.1329	52.8627	-88.027	-75.8742	112.556	-55.2857	-62.7673	92.7797	-75.6851	-72.6638	73.7042	-91.5956	-67.6055	126.882	-68.2932	-53.4629	111.474	-83.9662	-60.8397	88.4567	-99.4307	-58.8466	139.835	-28.9064	-14.2063	142.21	-29.1888	15.0976	114.444	-8.34689	2.55138	
26	0.216667	82.2153	-15.3748	10.0909	70.1367	-9.35441	-12.5852	55.9615	0.870617	-35.9088	45.2654	7.61279	-54.6577	81.8793	-21.19	-62.2336	67.0548	-41.6112	-76.3745	45.0779	-64.106	-76.8938	97.875	-35.8964	-68.0995	77.3339	-60.8873	-79.515	57.1439	-86.1424	-75.8818	108.385	-52.5506	-64.8749	89.8042	-72.4835	-72.6105	71.3853	-95.624	-66.5894	125.372	-68.7373	-54.2579	105.966	-80.252	-62.2263	86.6635	-95.4255	-59.6018	136.157	-27.1742	-17.285	141.997	-30.6195	13.5866	114.8	-6.70205	3.63178	
27	0.225	80.1391	-13.1761	14.1726	67.1136	-7.57052	-10.4358	56.3184	2.66437	-40.2118	43.8239	7.77399	-52.9077	82.7517	-23.8055	-63.9765	64.8008	-40.387	-75.8634	44.4115	-64.1335	-77.6901	96.7616	-37.0522	-68.3811	78.1868	-59.7787	-79.8102	51.425	-85.5704	-74.8004	113.264	-52.4873	-61.3124	91.034	-70.6812	-71.9582	72.5932	-95.8156	-66.2029	125.71	-66.5198	-53.1176	111.164	-84.1285	-60.8121	84.1392	-95.322	-60.8034	137.343	-27.3342	-18.3158	140.524	-26.5527	17.1944	113.968	-6.77407	-0.349264	
28	0.233333	81.5735	-14.5762	11.7201	68.7932	-7.02144	-13.6804	57.5316	-0.0559798	-36.0175	44.5341	7.52635	-52.449	79.8018	-23.8241	-64.9536	63.6161	-40.4522	-75.3208	43.8064	-66.6724	-76.4991	96.2455	-38.1619	-68.8342	76.858	-56.8079	-78.6635	52.808	-85.3426	-75.8507	110.133	-54.0643	-62.8936	93.6908	-73.2964	-71.9975	73.1958	-93.3831	-67.0699	124.618	-66.7686	-52.5191	108.091	-82.8161	-61.7106	89.3722	-98.7848	-60.6762	136.903	-26.6083	-15.4568	141.788	-29.58	17.0131	112.009	-6.23964	-0.289296	
29	0.241667	83.7825	-16.2787	14.0786	69.2267	-9.66259	-10.3754	55.6528	1.87878	-37.0891	47.0824	7.52863	-55.5936	83.0678	-28.093	-64.6769	66.1556	-42.5053	-75.0789	48.5575	-64.8348	-77.0278	98.0911	-40.9759	-69.7229	77.9927	-61.3707	-78.7475	50.6248	-85.5115	-75.1505	113.195	-55.0793	-60.6687	92.4686	-74.5963	-71.7816	70.419	-94.0625	-66.8523	125.881	-67.1089	-50.9866	108.167	-85.3947	-61.2925	90.3638	-100.661	-60.3375	138.371	-29.079	-16.7843	144.235	-31.3525	16.4821	112.58	-7.94221	3.86022	
30	0.25	83.0816	-14.3674	11.6576	69.5102	-7.6043	-11.929	57.2484	-0.335062	-35.2027	47.568	4.84212	-52.0959	81.9753	-24.0523	-63.0516	67.4897	-45.7435	-75.3847	50.0759	-65.0279	-77.937	98.6415	-40.9086	-68.2401	77.632	-61.667	-79.6428	54.51	-86.7666	-75.4545	112.517	-56.5177	-62.369	92.4981	-73.5453	-71.9967	71.4146	-98.1176	-64.6742	124.46	-66.9871	-51.4615	106.657	-82.2098	-61.085	88.9878	-97.9383	-60.6887	139.045	-31.2248	-15.4504	141.611	-31.8823	14.3366	114.733	-8.64776	3.40093	
31	0.258333	83.8671	-15.7096	12.9048	69.7912	-8.03214	-14.4837	58.0304	-0.28272	-36.1931	45.5744	6.85452	-53.9788	87.2041	-25.4454	-62.2818	66.3784	-45.2489	-76.3965	50.6347	-68.368	-77.764	99.4751	-42.0112	-69.8124	80.4247	-62.187	-79.5232	52.4157	-87.4017	-75.8274	111.249	-56.6392	-62.3345	93.8084	-76.5995	-70.8292	72.3241	-93.3631	-66.5182	126.853	-69.765	-50.7337	109.06	-83.0333	-60.0379	86.7278	-96.9655	-60.1164	137.782	-30.4232	-16.0911	141.872	-29.2348	16.8879	117.256	-11.3862	2.29057	
32	0.266667	81.7622	-15.3811	15.8935	68.7361	-7.94691	-13.9243	56.813	1.51714	-37.954	46.6167	5.93791	-55.028	86.7977	-24.3605	-62.1759	63.2138	-45.0097	-76.5346	49.5895	-65.4392	-76.5643	100.356	-39.9249	-66.5058	76.984	-60.5611	-78.7855	56.6862	-88.9922	-75.8607	113.126	-56.2522	-60.9106	94.2629	-74.894	-70.8385	73.1327	-98.1639	-64.5422	127.682	-67.7448	-50.3997	112.045	-86.8282	-59.5907	85.6624	-98.9705	-57.8852	141.225	-31.3938	-14.7334	143.991	-34.3112	14.7647	117.23	-11.6131	-0.408674	
33	0.275	82.4812	-17.9241	13.8863	67.8116	-10.2555	-9.35876	55.9025	-1.6909	-35.0393	45.6106	6.60569	-54.0793	81.9394	-25.37	-64.8315	65.8593	-44.0894	-76.485	52.0806	-68.7927	-77.0526	102.428	-42.5132	-65.9727	78.8987	-61.5132	-78.8507	56.2428	-86.3759	-76.3785	112.022	-59.7259	-62.597	95.4607	-77.6429	-70.5983	76.9978	-98.4662	-64.6008	126.782	-70.0233	-52.7455	111.635	-86.5067	-60.5268	87.2193	-103.412	-59.9448	140.768	-29.5842	-15.263	141.82	-31.8801	13.0076	113.015	-10.469	3.51625	
34	0.283333	83.3342	-18.1781	10.5701	67.9783	-8.57822	-13.5866	58.9687	-3.73915	-35.4615	45.0977	6.82103	-54.2248	86.6308	-27.929	-64.0059	62.8865	-46.5725	-77.9026	50.5579	-68.039	-77.6349	95.9978	-40.9358	-69.214	79.0758	-60.8825	-78.5373	55.5541	-90.0885	-74.5671	111.457	-56.4088	-62.1253	96.4552	-75.9451	-69.8179	70.896	-97.6126	-64.6549	126.05	-69.4676	-52.5666	110.396	-86.7654	-59.898	88.4081	-99.3509	-60.8935	139.989	-32.4534	-14.363	140.757	-32.5541	15.8853	113.547	-10.7875	-0.35945	
35	0.291667	83.2847	-18.0313	13.2278	68.9218	-7.618	-15.9059	56.4966	0.282254	-37.8279	48.4357	4.80469	-55.631	81.4155	-25.7516	-66.9335	68.2955	-45.7052	-76.4634	49.1854	-66.5805	-78.0415	97.107	-42.1599	-71.2465	78.5453	-62.4826	-79.8275	58.7682	-90.241	-75.3868	114.411	-57.1825	-61.8566	91.9348	-75.7598	-71.6113	72.3223	-99.6845	-64.1566	124.671	-68.9804	-55.2504	111.606	-82.4098	-60.1051	88.8391	-98.9762	-60.4756	138.609	-27.1187	-16.0508	141.587	-31.071	17.1395	116.39	-10.5307	-0.143671	
36	0.3	84.0326	-15.7055	9.07436	70.0079	-9.35778	-13.1319	58.2615	2.49661	-42.1511	47.0264	7.7111	-55.7137	85.8588	-26.9922	-66.8471	65.7855	-43.793	-77.5792	53.0838	-67.5478	-78.6337	95.5861	-39.4465	-70.6631	79.5941	-60.9802	-78.9343	53.7914	-88.5311	-74.9662	113.477	-54.9489	-62.3978	92.62	-76.6782	-71.0674	71.6523	-96.5314	-63.9313	128.52	-68.7428	-52.2578	108.578	-87.027	-62.4961	91.851	-96.5233	-63.6132	137.893	-28.4514	-16.7193	140.985	-28.3626	11.2172	115.771	-9.5154	2.03148	
37	0.308333	83.67	-18.1467	12.4457	68.2	-7.96705	-12.6786	57.1383	2.96643	-42.3659	46.6963	8.11843	-56.9533	85.6028	-26.1426	-64.803	69.1942	-45.0034	-77.6402	48.1133	-66.0811	-79.7149	98.0248	-40.8598	-71.0535	80.6843	-63.2034	-79.7163	56.9399	-90.1987	-75.0362	114.363	-54.9395	-63.4263	92.4425	-76.5784	-71.8599	72.2833	-93.7811	-66.2601	127.318	-70.5657	-53.8828	108.841	-86.2752	-62.5266	87.7007	-97.5857	-63.7932	140.225	-28.0327	-16.0667	144.43	-30.3048	10.7681	115.324	-9.19146	-3.51382	
38	0.316667	82.9131	-16.4776	13.494	68.9038	-8.01448	-12.3777	57.9534	2.20153	-41.0158	46.6623	5.73153	-54.4131	83.2611	-27.9596	-66.9638	65.0493	-44.9678	-78.3002	48.9713	-68.3702	-79.3455	100.46	-41.5292	-70.0195	78.6693	-59.6291	-79.7561	53.3577	-87.3661	-76.9831	110.326	-54.9658	-64.9182	96.6936	-74.1831	-72.6718	72.5394	-93.1794	-68.1726	127.988	-67.2372	-52.9564	113.913	-83.9089	-61.1197	91.9366	-95.9414	-63.9042	137.967	-28.3586	-16.0713	140.981	-27.867	11.0244	116.172	-7.86347	-2.20079	
39	0.325	79.7443	-13.5726	13.7229	69.6793	-7.72944	-16.288	60.0898	-1.7853	-41.5434	47.1713	1.95281	-56.0722	83.9733	-22.0839	-62.8062	66.1356	-40.2211	-78.3566	48.9068	-64.081	-82.4291	96.2615	-37.8976	-71.58	78.4824	-60.8693	-81.8793	56.8398	-88.0065	-79.3379	112.612	-55.7591	-65.4798	95.2821	-72.6045	-74.2781	73.4264	-93.753	-70.6349	126.413	-62.881	-54.5723	112.799	-82.4361	-64.208	91.7854	-97.6725	-65.4232	140.173	-27.997	-16.9338	143.136	-29.1517	14.4259	114.383	-5.51417	-1.67146	
40	0.333333	80.4004	-15.0219	11.0885	66.9889	-14.4244	-14.158	54.1798	-10.0961	-40.3099	45.7946	-8.87794	-59.957	85.2785	-22.1173	-64.6016	71.735	-42.5189	-80.2254	53.857	-67.5805	-86.7767	102.726	-38.4399	-71.0832	83.5088	-56.1743	-82.9966	61.1275	-85.793	-85.8321	118.052	-52.9555	-62.5681	99.8865	-71.0892	-76.1998	82.678	-94.1137	-76.9613	131.361	-64.6247	-54.2644	117.109	-81.9322	-65.706	99.6081	-98.409	-69.4419	138.167	-25.4	-16.5029	143.998	-25.7057	14.0377	115.394	-9.00022	-0.124374	
